<svg xmlns="http://www.w3.org/2000/svg" viewBox="0 0 1024 1024" width="1024" height="1024">
  <defs>
    <clipPath id="iconClip">
      <rect x="0" y="0" width="1024" height="1024" rx="228" ry="228"/>
    </clipPath>
    <linearGradient id="bgGrad" x1="0" y1="0" x2="0" y2="1">
      <stop offset="0%" stop-color="#FFFFFF" stop-opacity="1"/>
      <stop offset="100%" stop-color="#E8E8ED" stop-opacity="1"/>
    </linearGradient>
    <linearGradient id="shine" x1="0" y1="0" x2="0" y2="1">
      <stop offset="0%" stop-color="#ffffff" stop-opacity="0.8"/>
      <stop offset="40%" stop-color="#ffffff" stop-opacity="0.2"/>
      <stop offset="100%" stop-color="#ffffff" stop-opacity="0"/>
    </linearGradient>
    <filter id="dotShadow">
      <feDropShadow dx="0" dy="4" stdDeviation="6" flood-color="#000000" flood-opacity="0.12"/>
    </filter>
    <linearGradient id="searchBarGrad" x1="0" y1="0" x2="0" y2="1">
      <stop offset="0%" stop-color="#000000" stop-opacity="0.06"/>
      <stop offset="100%" stop-color="#000000" stop-opacity="0.03"/>
    </linearGradient>
  </defs>
  <g clip-path="url(#iconClip)">
    <rect width="1024" height="1024" fill="url(#bgGrad)"/>
    <rect width="1024" height="512" fill="url(#shine)"/>
    <rect x="200" y="215" width="624" height="72" rx="36" ry="36" fill="url(#searchBarGrad)" stroke="#000000" stroke-opacity="0.08" stroke-width="2"/>
    <g transform="translate(235, 234)" fill="none" stroke="#000000" stroke-opacity="0.35" stroke-width="4.5" stroke-linecap="round">
      <circle cx="16" cy="16" r="12"/>
      <line x1="24" y1="24" x2="33" y2="33"/>
    </g>
    <rect x="280" y="242" width="120" height="10" rx="5" fill="#000000" fill-opacity="0.12"/>
    <g filter="url(#dotShadow)">
      <circle cx="340" cy="420" r="68" fill="#FF6B6B"/>
      <circle cx="512" cy="420" r="68" fill="#4ECDC4"/>
      <circle cx="684" cy="420" r="68" fill="#45B7D1"/>
      <circle cx="340" cy="590" r="68" fill="#96CEB4"/>
      <circle cx="512" cy="590" r="68" fill="#FFEAA7"/>
      <circle cx="684" cy="590" r="68" fill="#DDA0DD"/>
      <circle cx="340" cy="760" r="68" fill="#F39C12"/>
      <circle cx="512" cy="760" r="68" fill="#6C5CE7"/>
      <circle cx="684" cy="760" r="68" fill="#55E6C1"/>
    </g>
    <rect x="0" y="1022" width="1024" height="2" fill="#000000" opacity="0.06"/>
  </g>
</svg>
